<svg width="166" height="37" viewBox="0 0 166 37" fill="none" xmlns="http://www.w3.org/2000/svg">
<mask id="path-1-outside-1_2_5" maskUnits="userSpaceOnUse" x="0" y="0" width="168" height="37" fill="black">
<rect fill="white" width="168" height="37"/>
<path d="M0 36.52H36V0.52H0V36.52ZM67.284 16.468C67.284 19.06 66.432 21.316 64.728 23.236C63.024 25.156 61.104 26.62 58.968 27.628C59.664 28.876 60.012 29.86 60.012 30.58C60.012 31.564 59.7 32.38 59.076 33.028C58.452 33.676 57.588 34 56.484 34C55.404 34 54.12 33.424 52.632 32.272C51.168 31.12 49.896 29.764 48.816 28.204C47.76 26.62 47.232 25.264 47.232 24.136C47.232 23.176 47.568 22.372 48.24 21.724C48.936 21.052 49.824 20.716 50.904 20.716C52.032 20.716 53.304 21.304 54.72 22.48C55.776 21.736 56.628 21.052 57.276 20.428C57.924 19.804 58.44 19.024 58.824 18.088C54.576 18.088 50.88 18.016 47.736 17.872C43.632 17.704 41.58 16.3 41.58 13.66C41.58 11.812 42.492 10.6 44.316 10.024C46.14 9.424 48.552 9.124 51.552 9.124L54.684 9.16C57.3 9.16 59.508 9.352 61.308 9.736C63.108 10.096 64.548 10.816 65.628 11.896C66.732 12.952 67.284 14.476 67.284 16.468ZM98.8082 24.172C98.8082 24.988 98.5682 25.636 98.0882 26.116C97.6322 26.572 96.8282 26.92 95.6762 27.16C94.5242 27.376 92.8802 27.52 90.7442 27.592C89.6642 31.864 86.7842 34 82.1042 34C81.1442 34 80.3762 33.796 79.8002 33.388C79.2482 32.956 78.9722 32.476 78.9722 31.948C78.9722 31.396 79.1642 30.916 79.5482 30.508C79.9322 30.1 80.6402 29.716 81.6722 29.356C82.6802 28.996 83.3642 28.432 83.7242 27.664C81.0362 27.616 78.9842 27.496 77.5682 27.304C76.1762 27.088 75.1922 26.74 74.6162 26.26C74.0402 25.78 73.7522 25.084 73.7522 24.172C73.7522 23.26 74.0402 22.576 74.6162 22.12C75.1922 21.664 76.1762 21.352 77.5682 21.184C78.9842 20.992 81.0962 20.884 83.9042 20.86C83.8802 20.236 83.8202 19.54 83.7242 18.772L83.6522 17.944C82.4762 18.04 81.1082 18.088 79.5482 18.088C77.8202 18.088 76.4402 17.908 75.4082 17.548C74.4002 17.164 73.8962 16.372 73.8962 15.172C73.8962 14.308 74.1722 13.624 74.7242 13.12C75.3002 12.592 76.0202 12.184 76.8842 11.896C77.7482 11.608 78.9722 11.284 80.5562 10.924L81.8162 10.636L85.5962 9.7C87.6842 9.148 89.3282 8.752 90.5282 8.512C91.7522 8.272 92.8922 8.152 93.9482 8.152C95.0522 8.152 96.0002 8.476 96.7922 9.124C97.5842 9.772 97.9802 10.696 97.9802 11.896C97.9802 12.976 97.3442 13.948 96.0722 14.812C94.8002 15.676 93.0482 16.372 90.8162 16.9C91.0562 17.932 91.2002 19.276 91.2482 20.932C93.2642 21.004 94.8002 21.148 95.8562 21.364C96.9362 21.556 97.6922 21.868 98.1242 22.3C98.5802 22.732 98.8082 23.356 98.8082 24.172ZM118.214 33.964C114.566 33.964 111.818 33.484 109.97 32.524C108.122 31.564 106.886 30.196 106.262 28.42C105.662 26.62 105.362 24.196 105.362 21.148C105.362 18.436 105.662 16.18 106.262 14.38C106.862 12.556 108.062 11.104 109.862 10.024C111.662 8.944 114.266 8.404 117.674 8.404C121.178 8.404 123.854 8.944 125.702 10.024C127.55 11.104 128.786 12.556 129.41 14.38C130.034 16.18 130.346 18.436 130.346 21.148C130.346 24.172 130.046 26.584 129.446 28.384C128.846 30.184 127.67 31.564 125.918 32.524C124.166 33.484 121.598 33.964 118.214 33.964ZM122.03 26.476V17.404H113.57V26.476H122.03ZM147.235 33.856C146.251 33.856 145.411 33.616 144.715 33.136C144.043 32.632 143.707 31.936 143.707 31.048C143.707 30.232 143.971 29.548 144.499 28.996C145.027 28.444 145.843 27.808 146.947 27.088C148.123 26.32 148.939 25.708 149.395 25.252C151.579 23.188 152.671 20.368 152.671 16.792C152.671 16.168 152.659 15.712 152.635 15.424H146.659C146.107 18.352 145.219 20.5 143.995 21.868C142.795 23.236 141.511 23.92 140.143 23.92C139.159 23.92 138.355 23.644 137.731 23.092C137.131 22.54 136.831 21.76 136.831 20.752C136.831 20.056 136.963 19.408 137.227 18.808C137.491 18.184 137.887 17.428 138.415 16.54C138.991 15.532 139.291 15.004 139.315 14.956C139.531 14.524 139.783 13.828 140.071 12.868C140.263 12.148 140.467 11.548 140.683 11.068C140.899 10.588 141.187 10.168 141.547 9.808C142.219 9.184 143.023 8.764 143.959 8.548C144.895 8.332 145.975 8.224 147.199 8.224L149.107 8.26C151.075 8.26 152.791 8.332 154.255 8.476C155.719 8.62 156.823 8.98 157.567 9.556C158.479 10.228 159.151 11.152 159.583 12.328C160.015 13.504 160.231 14.848 160.231 16.36C160.231 19.36 159.595 22.216 158.323 24.928C157.051 27.616 155.407 29.776 153.391 31.408C151.375 33.04 149.323 33.856 147.235 33.856ZM158.935 9.052C158.263 9.052 157.783 8.788 157.495 8.26C157.231 7.708 157.099 6.892 157.099 5.812C157.099 4.876 157.231 4.168 157.495 3.688C157.783 3.184 158.263 2.932 158.935 2.932C160.207 2.932 160.843 3.904 160.843 5.848C160.843 6.904 160.687 7.708 160.375 8.26C160.087 8.788 159.607 9.052 158.935 9.052ZM163.399 9.052C162.727 9.052 162.259 8.788 161.995 8.26C161.755 7.708 161.635 6.928 161.635 5.92C161.635 3.928 162.247 2.932 163.471 2.932C164.767 2.932 165.415 3.856 165.415 5.704C165.415 7.936 164.743 9.052 163.399 9.052Z"/>
</mask>
<path d="M0 36.52H36V0.52H0V36.52ZM67.284 16.468C67.284 19.06 66.432 21.316 64.728 23.236C63.024 25.156 61.104 26.62 58.968 27.628C59.664 28.876 60.012 29.86 60.012 30.58C60.012 31.564 59.7 32.38 59.076 33.028C58.452 33.676 57.588 34 56.484 34C55.404 34 54.12 33.424 52.632 32.272C51.168 31.12 49.896 29.764 48.816 28.204C47.76 26.62 47.232 25.264 47.232 24.136C47.232 23.176 47.568 22.372 48.24 21.724C48.936 21.052 49.824 20.716 50.904 20.716C52.032 20.716 53.304 21.304 54.72 22.48C55.776 21.736 56.628 21.052 57.276 20.428C57.924 19.804 58.44 19.024 58.824 18.088C54.576 18.088 50.88 18.016 47.736 17.872C43.632 17.704 41.58 16.3 41.58 13.66C41.58 11.812 42.492 10.6 44.316 10.024C46.14 9.424 48.552 9.124 51.552 9.124L54.684 9.16C57.3 9.16 59.508 9.352 61.308 9.736C63.108 10.096 64.548 10.816 65.628 11.896C66.732 12.952 67.284 14.476 67.284 16.468ZM98.8082 24.172C98.8082 24.988 98.5682 25.636 98.0882 26.116C97.6322 26.572 96.8282 26.92 95.6762 27.16C94.5242 27.376 92.8802 27.52 90.7442 27.592C89.6642 31.864 86.7842 34 82.1042 34C81.1442 34 80.3762 33.796 79.8002 33.388C79.2482 32.956 78.9722 32.476 78.9722 31.948C78.9722 31.396 79.1642 30.916 79.5482 30.508C79.9322 30.1 80.6402 29.716 81.6722 29.356C82.6802 28.996 83.3642 28.432 83.7242 27.664C81.0362 27.616 78.9842 27.496 77.5682 27.304C76.1762 27.088 75.1922 26.74 74.6162 26.26C74.0402 25.78 73.7522 25.084 73.7522 24.172C73.7522 23.26 74.0402 22.576 74.6162 22.12C75.1922 21.664 76.1762 21.352 77.5682 21.184C78.9842 20.992 81.0962 20.884 83.9042 20.86C83.8802 20.236 83.8202 19.54 83.7242 18.772L83.6522 17.944C82.4762 18.04 81.1082 18.088 79.5482 18.088C77.8202 18.088 76.4402 17.908 75.4082 17.548C74.4002 17.164 73.8962 16.372 73.8962 15.172C73.8962 14.308 74.1722 13.624 74.7242 13.12C75.3002 12.592 76.0202 12.184 76.8842 11.896C77.7482 11.608 78.9722 11.284 80.5562 10.924L81.8162 10.636L85.5962 9.7C87.6842 9.148 89.3282 8.752 90.5282 8.512C91.7522 8.272 92.8922 8.152 93.9482 8.152C95.0522 8.152 96.0002 8.476 96.7922 9.124C97.5842 9.772 97.9802 10.696 97.9802 11.896C97.9802 12.976 97.3442 13.948 96.0722 14.812C94.8002 15.676 93.0482 16.372 90.8162 16.9C91.0562 17.932 91.2002 19.276 91.2482 20.932C93.2642 21.004 94.8002 21.148 95.8562 21.364C96.9362 21.556 97.6922 21.868 98.1242 22.3C98.5802 22.732 98.8082 23.356 98.8082 24.172ZM118.214 33.964C114.566 33.964 111.818 33.484 109.97 32.524C108.122 31.564 106.886 30.196 106.262 28.42C105.662 26.62 105.362 24.196 105.362 21.148C105.362 18.436 105.662 16.18 106.262 14.38C106.862 12.556 108.062 11.104 109.862 10.024C111.662 8.944 114.266 8.404 117.674 8.404C121.178 8.404 123.854 8.944 125.702 10.024C127.55 11.104 128.786 12.556 129.41 14.38C130.034 16.18 130.346 18.436 130.346 21.148C130.346 24.172 130.046 26.584 129.446 28.384C128.846 30.184 127.67 31.564 125.918 32.524C124.166 33.484 121.598 33.964 118.214 33.964ZM122.03 26.476V17.404H113.57V26.476H122.03ZM147.235 33.856C146.251 33.856 145.411 33.616 144.715 33.136C144.043 32.632 143.707 31.936 143.707 31.048C143.707 30.232 143.971 29.548 144.499 28.996C145.027 28.444 145.843 27.808 146.947 27.088C148.123 26.32 148.939 25.708 149.395 25.252C151.579 23.188 152.671 20.368 152.671 16.792C152.671 16.168 152.659 15.712 152.635 15.424H146.659C146.107 18.352 145.219 20.5 143.995 21.868C142.795 23.236 141.511 23.92 140.143 23.92C139.159 23.92 138.355 23.644 137.731 23.092C137.131 22.54 136.831 21.76 136.831 20.752C136.831 20.056 136.963 19.408 137.227 18.808C137.491 18.184 137.887 17.428 138.415 16.54C138.991 15.532 139.291 15.004 139.315 14.956C139.531 14.524 139.783 13.828 140.071 12.868C140.263 12.148 140.467 11.548 140.683 11.068C140.899 10.588 141.187 10.168 141.547 9.808C142.219 9.184 143.023 8.764 143.959 8.548C144.895 8.332 145.975 8.224 147.199 8.224L149.107 8.26C151.075 8.26 152.791 8.332 154.255 8.476C155.719 8.62 156.823 8.98 157.567 9.556C158.479 10.228 159.151 11.152 159.583 12.328C160.015 13.504 160.231 14.848 160.231 16.36C160.231 19.36 159.595 22.216 158.323 24.928C157.051 27.616 155.407 29.776 153.391 31.408C151.375 33.04 149.323 33.856 147.235 33.856ZM158.935 9.052C158.263 9.052 157.783 8.788 157.495 8.26C157.231 7.708 157.099 6.892 157.099 5.812C157.099 4.876 157.231 4.168 157.495 3.688C157.783 3.184 158.263 2.932 158.935 2.932C160.207 2.932 160.843 3.904 160.843 5.848C160.843 6.904 160.687 7.708 160.375 8.26C160.087 8.788 159.607 9.052 158.935 9.052ZM163.399 9.052C162.727 9.052 162.259 8.788 161.995 8.26C161.755 7.708 161.635 6.928 161.635 5.92C161.635 3.928 162.247 2.932 163.471 2.932C164.767 2.932 165.415 3.856 165.415 5.704C165.415 7.936 164.743 9.052 163.399 9.052Z" fill="#FDFF89"/>
<path d="M64.728 23.236L66.2239 24.5636L64.728 23.236ZM58.968 27.628L58.1144 25.8193L56.1787 26.7328L57.2213 28.6021L58.968 27.628ZM59.076 33.028L60.5166 34.4153H60.5166L59.076 33.028ZM52.632 32.272L51.3952 33.8437L51.4014 33.8486L51.4077 33.8534L52.632 32.272ZM48.816 28.204L47.1519 29.3134L47.1616 29.328L47.1716 29.3424L48.816 28.204ZM48.24 21.724L49.6283 23.1637L49.6292 23.1628L48.24 21.724ZM54.72 22.48L53.4422 24.0186L54.6202 24.9969L55.8719 24.115L54.72 22.48ZM57.276 20.428L58.6633 21.8686V21.8686L57.276 20.428ZM58.824 18.088L60.6743 18.8471L61.8063 16.088H58.824V18.088ZM47.736 17.872L47.8275 15.8741L47.8178 15.8737L47.736 17.872ZM44.316 10.024L44.9183 11.9312L44.9296 11.9276L44.941 11.9239L44.316 10.024ZM51.552 9.124L51.575 7.12413L51.5635 7.124H51.552V9.124ZM54.684 9.16L54.661 11.1599L54.6725 11.16H54.684V9.16ZM61.308 9.736L60.8907 11.692L60.9032 11.6947L60.9158 11.6972L61.308 9.736ZM65.628 11.896L64.2138 13.3102L64.2295 13.3259L64.2456 13.3413L65.628 11.896ZM65.284 16.468C65.284 18.5759 64.6079 20.3583 63.2322 21.9084L66.2239 24.5636C68.2561 22.2737 69.284 19.5441 69.284 16.468H65.284ZM63.2322 21.9084C61.6918 23.644 59.9855 24.9363 58.1144 25.8193L59.8216 29.4367C62.2225 28.3037 64.3562 26.668 66.2239 24.5636L63.2322 21.9084ZM57.2213 28.6021C57.8848 29.7918 58.012 30.3977 58.012 30.58H62.012C62.012 29.3223 61.4432 27.9602 60.7147 26.6539L57.2213 28.6021ZM58.012 30.58C58.012 31.0997 57.8653 31.402 57.6354 31.6407L60.5166 34.4153C61.5347 33.358 62.012 32.0283 62.012 30.58H58.012ZM57.6354 31.6407C57.4711 31.8113 57.1765 32 56.484 32V36C57.9995 36 59.4329 35.5407 60.5166 34.4153L57.6354 31.6407ZM56.484 32C56.0718 32 55.227 31.7517 53.8563 30.6906L51.4077 33.8534C53.013 35.0963 54.7362 36 56.484 36V32ZM53.8688 30.7003C52.5644 29.6739 51.429 28.4647 50.4604 27.0656L47.1716 29.3424C48.363 31.0633 49.7716 32.5661 51.3952 33.8437L53.8688 30.7003ZM50.4801 27.0946C49.5085 25.6372 49.232 24.6814 49.232 24.136H45.232C45.232 25.8466 46.0115 27.6028 47.1519 29.3134L50.4801 27.0946ZM49.232 24.136C49.232 23.7017 49.3595 23.4229 49.6283 23.1637L46.8517 20.2843C45.7765 21.3211 45.232 22.6503 45.232 24.136H49.232ZM49.6292 23.1628C49.9077 22.8939 50.2767 22.716 50.904 22.716V18.716C49.3713 18.716 47.9643 19.2101 46.8508 20.2852L49.6292 23.1628ZM50.904 22.716C51.3498 22.716 52.1743 22.9656 53.4422 24.0186L55.9978 20.9414C54.4337 19.6424 52.7142 18.716 50.904 18.716V22.716ZM55.8719 24.115C56.9786 23.3353 57.9179 22.5864 58.6633 21.8686L55.8887 18.9874C55.3381 19.5176 54.5734 20.1367 53.5681 20.845L55.8719 24.115ZM58.6633 21.8686C59.5348 21.0294 60.1981 20.0079 60.6743 18.8471L56.9737 17.3289C56.6819 18.0401 56.3132 18.5786 55.8887 18.9874L58.6633 21.8686ZM58.824 16.088C54.5968 16.088 50.9326 16.0163 47.8275 15.8741L47.6445 19.8699C50.8274 20.0157 54.5552 20.088 58.824 20.088V16.088ZM47.8178 15.8737C45.9216 15.796 44.8233 15.4358 44.2484 15.0424C43.806 14.7397 43.58 14.3682 43.58 13.66H39.58C39.58 15.5918 40.38 17.2423 41.9896 18.3436C43.4667 19.3542 45.4464 19.7799 47.6542 19.8703L47.8178 15.8737ZM43.58 13.66C43.58 13.0728 43.7198 12.7567 43.8621 12.5675C44.009 12.3723 44.2991 12.1267 44.9183 11.9312L43.7137 8.11683C42.5089 8.49732 41.431 9.14572 40.6659 10.1625C39.8962 11.1853 39.58 12.3992 39.58 13.66H43.58ZM44.941 11.9239C46.483 11.4166 48.659 11.124 51.552 11.124V7.124C48.445 7.124 45.797 7.4314 43.691 8.12415L44.941 11.9239ZM51.529 11.1239L54.661 11.1599L54.707 7.16013L51.575 7.12413L51.529 11.1239ZM54.684 11.16C57.2132 11.16 59.2718 11.3466 60.8907 11.692L61.7253 7.78001C59.7442 7.35738 57.3868 7.16 54.684 7.16V11.16ZM60.9158 11.6972C62.4079 11.9956 63.4651 12.5616 64.2138 13.3102L67.0422 10.4818C65.6309 9.07043 63.8081 8.19642 61.7002 7.77484L60.9158 11.6972ZM64.2456 13.3413C64.8449 13.9146 65.284 14.8479 65.284 16.468H69.284C69.284 14.1041 68.619 11.9894 67.0104 10.4507L64.2456 13.3413ZM98.0882 26.116L96.674 24.7018L98.0882 26.116ZM95.6762 27.16L96.0448 29.1257L96.0645 29.122L96.0841 29.118L95.6762 27.16ZM90.7442 27.592L90.6768 25.5931L89.1738 25.6438L88.8052 27.1018L90.7442 27.592ZM79.8002 33.388L78.5676 34.963L78.6052 34.9924L78.6442 35.0201L79.8002 33.388ZM79.5482 30.508L81.0046 31.8787L79.5482 30.508ZM81.6722 29.356L82.3309 31.2444L82.3379 31.242L82.3449 31.2395L81.6722 29.356ZM83.7242 27.664L85.5351 28.5129L86.8445 25.7194L83.7599 25.6643L83.7242 27.664ZM77.5682 27.304L77.2615 29.2803L77.2805 29.2833L77.2995 29.2859L77.5682 27.304ZM74.6162 26.26L73.3358 27.7964H73.3358L74.6162 26.26ZM74.6162 22.12L73.3748 20.5519L74.6162 22.12ZM77.5682 21.184L77.8078 23.1696L77.8224 23.1678L77.8369 23.1659L77.5682 21.184ZM83.9042 20.86L83.9213 22.8599L85.9819 22.8423L85.9027 20.7831L83.9042 20.86ZM83.7242 18.772L81.7317 18.9453L81.735 18.9827L81.7396 19.0201L83.7242 18.772ZM83.6522 17.944L85.6447 17.7707L85.4723 15.7888L83.4895 15.9506L83.6522 17.944ZM75.4082 17.548L74.6962 19.417L74.7227 19.4271L74.7494 19.4364L75.4082 17.548ZM74.7242 13.12L76.0727 14.597L76.0756 14.5943L74.7242 13.12ZM76.8842 11.896L77.5166 13.7934L77.5166 13.7934L76.8842 11.896ZM80.5562 10.924L80.9994 12.8743L81.0018 12.8737L80.5562 10.924ZM81.8162 10.636L82.2618 12.5857L82.2794 12.5817L82.2969 12.5774L81.8162 10.636ZM85.5962 9.7L86.0769 11.6414L86.0922 11.6376L86.1074 11.6336L85.5962 9.7ZM90.5282 8.512L90.1434 6.54936L90.136 6.55084L90.5282 8.512ZM96.0722 14.812L94.9484 13.1576V13.1576L96.0722 14.812ZM90.8162 16.9L90.3558 14.9537L88.4169 15.4124L88.8682 17.353L90.8162 16.9ZM91.2482 20.932L89.249 20.9899L89.3033 22.8638L91.1768 22.9307L91.2482 20.932ZM95.8562 21.364L95.4554 23.3234L95.4807 23.3286L95.5061 23.3331L95.8562 21.364ZM98.1242 22.3L96.71 23.7142L96.7291 23.7333L96.7487 23.7519L98.1242 22.3ZM96.8082 24.172C96.8082 24.5722 96.7049 24.6708 96.674 24.7018L99.5024 27.5302C100.431 26.6012 100.808 25.4038 100.808 24.172H96.8082ZM96.674 24.7018C96.6756 24.7002 96.5971 24.776 96.3487 24.8836C96.1051 24.989 95.7536 25.1009 95.2683 25.202L96.0841 29.118C97.3464 28.855 98.6251 28.4075 99.5024 27.5302L96.674 24.7018ZM95.3076 25.1943C94.3048 25.3823 92.7796 25.5223 90.6768 25.5931L90.8116 29.5909C92.9808 29.5177 94.7436 29.3697 96.0448 29.1257L95.3076 25.1943ZM88.8052 27.1018C88.3515 28.8963 87.5734 30.0569 86.5828 30.7916C85.5795 31.5357 84.146 32 82.1042 32V36C84.7424 36 87.0889 35.3963 88.9656 34.0044C90.855 32.6031 92.0568 30.5597 92.6832 28.0822L88.8052 27.1018ZM82.1042 32C81.4123 32 81.092 31.8521 80.9562 31.756L78.6442 35.0201C79.6604 35.7399 80.8761 36 82.1042 36V32ZM81.0328 31.813C80.9077 31.7151 80.8935 31.6732 80.913 31.7071C80.9237 31.7256 80.94 31.7594 80.9529 31.8068C80.966 31.8547 80.9722 31.9034 80.9722 31.948H76.9722C76.9722 33.2797 77.7022 34.2858 78.5676 34.963L81.0328 31.813ZM80.9722 31.948C80.9722 31.9264 80.974 31.9156 80.9744 31.9133C80.9748 31.9113 80.9746 31.9132 80.9731 31.9168C80.9717 31.9204 80.9712 31.9204 80.9741 31.9159C80.9772 31.9111 80.986 31.8985 81.0046 31.8787L78.0918 29.1373C77.3644 29.9101 76.9722 30.8781 76.9722 31.948H80.9722ZM81.0046 31.8787C81.0021 31.8814 81.0793 31.803 81.3207 31.6721C81.5535 31.5458 81.8833 31.4006 82.3309 31.2444L81.0134 27.4676C79.9144 27.851 78.8203 28.3632 78.0918 29.1373L81.0046 31.8787ZM82.3449 31.2395C83.7164 30.7497 84.8931 29.8824 85.5351 28.5129L81.9133 26.8151C81.8353 26.9816 81.644 27.2423 80.9995 27.4725L82.3449 31.2395ZM83.7599 25.6643C81.0947 25.6167 79.1355 25.4982 77.8369 25.3221L77.2995 29.2859C78.8329 29.4938 80.9776 29.6153 83.6885 29.6637L83.7599 25.6643ZM77.8749 25.3277C76.5756 25.126 76.042 24.8447 75.8966 24.7236L73.3358 27.7964C74.3424 28.6353 75.7767 29.05 77.2615 29.2803L77.8749 25.3277ZM75.8966 24.7236C75.8748 24.7054 75.7522 24.6315 75.7522 24.172H71.7522C71.7522 25.5365 72.2056 26.8546 73.3358 27.7964L75.8966 24.7236ZM75.7522 24.172C75.7522 23.9233 75.7917 23.7981 75.8115 23.7511C75.8261 23.7163 75.8365 23.7048 75.8576 23.6881L73.3748 20.5519C72.2053 21.4778 71.7522 22.8113 71.7522 24.172H75.7522ZM75.8576 23.6881C75.9837 23.5883 76.503 23.3271 77.8078 23.1696L77.3285 19.1984C75.8494 19.3769 74.4007 19.7397 73.3748 20.5519L75.8576 23.6881ZM77.8369 23.1659C79.1239 22.9914 81.1336 22.8838 83.9213 22.8599L83.8871 18.8601C81.0588 18.8842 78.8445 18.9926 77.2995 19.2021L77.8369 23.1659ZM85.9027 20.7831C85.8761 20.0903 85.8102 19.3359 85.7087 18.5239L81.7396 19.0201C81.8301 19.744 81.8843 20.3817 81.9057 20.9369L85.9027 20.7831ZM85.7167 18.5987L85.6447 17.7707L81.6597 18.1173L81.7317 18.9453L85.7167 18.5987ZM83.4895 15.9506C82.3816 16.0411 81.07 16.088 79.5482 16.088V20.088C81.1464 20.088 82.5708 20.0389 83.8149 19.9374L83.4895 15.9506ZM79.5482 16.088C77.9298 16.088 76.8008 15.9156 76.0669 15.6596L74.7494 19.4364C76.0796 19.9004 77.7106 20.088 79.5482 20.088V16.088ZM76.1202 15.679C76.0305 15.6449 75.9886 15.6157 75.9746 15.6048C75.9628 15.5956 75.9619 15.5929 75.9615 15.5922C75.9602 15.5901 75.9452 15.5668 75.9296 15.5049C75.9133 15.4405 75.8962 15.3335 75.8962 15.172H71.8962C71.8962 16.0476 72.0809 16.9446 72.5869 17.7398C73.1034 18.5514 73.8524 19.0955 74.6962 19.417L76.1202 15.679ZM75.8962 15.172C75.8962 14.7737 76.0019 14.6617 76.0727 14.597L73.3756 11.643C72.3425 12.5863 71.8962 13.8423 71.8962 15.172H75.8962ZM76.0756 14.5943C76.4129 14.2852 76.8756 14.007 77.5166 13.7934L76.2517 9.99863C75.1648 10.361 74.1875 10.8988 73.3727 11.6457L76.0756 14.5943ZM77.5166 13.7934C78.2884 13.5361 79.4382 13.2291 80.9994 12.8743L80.1129 8.97373C78.5062 9.33891 77.208 9.67987 76.2517 9.99863L77.5166 13.7934ZM81.0018 12.8737L82.2618 12.5857L81.3705 8.68628L80.1105 8.97428L81.0018 12.8737ZM82.2969 12.5774L86.0769 11.6414L85.1155 7.75863L81.3355 8.69463L82.2969 12.5774ZM86.1074 11.6336C88.1808 11.0854 89.7794 10.7014 90.9204 10.4732L90.136 6.55084C88.877 6.80263 87.1876 7.21058 85.085 7.76643L86.1074 11.6336ZM90.913 10.4746C92.0323 10.2552 93.0421 10.152 93.9482 10.152V6.152C92.7423 6.152 91.472 6.28885 90.1434 6.54937L90.913 10.4746ZM93.9482 10.152C94.6296 10.152 95.1201 10.3401 95.5257 10.6719L98.0587 7.57608C96.8802 6.61191 95.4748 6.152 93.9482 6.152V10.152ZM95.5257 10.6719C95.7709 10.8725 95.9802 11.1804 95.9802 11.896H99.9802C99.9802 10.2116 99.3975 8.67147 98.0587 7.57608L95.5257 10.6719ZM95.9802 11.896C95.9802 12.0595 95.9226 12.4959 94.9484 13.1576L97.196 16.4664C98.7658 15.4001 99.9802 13.8925 99.9802 11.896H95.9802ZM94.9484 13.1576C93.9514 13.8348 92.456 14.4569 90.3558 14.9537L91.2766 18.8463C93.6403 18.2871 95.649 17.5172 97.196 16.4664L94.9484 13.1576ZM88.8682 17.353C89.0661 18.2042 89.203 19.4016 89.249 20.9899L93.2474 20.8741C93.1974 19.1504 93.0462 17.6597 92.7642 16.447L88.8682 17.353ZM91.1768 22.9307C93.1599 23.0015 94.5641 23.1411 95.4554 23.3234L96.257 19.4046C95.0363 19.1549 93.3685 19.0065 91.3196 18.9333L91.1768 22.9307ZM95.5061 23.3331C95.9492 23.4119 96.2614 23.5046 96.4702 23.5907C96.6825 23.6784 96.7318 23.7361 96.71 23.7142L99.5384 20.8858C98.6657 20.0131 97.4092 19.6087 96.2063 19.3949L95.5061 23.3331ZM96.7487 23.7519C96.7391 23.7428 96.7446 23.7398 96.7587 23.7784C96.7763 23.8267 96.8082 23.9465 96.8082 24.172H100.808C100.808 22.9795 100.464 21.7621 99.4997 20.8481L96.7487 23.7519ZM109.97 32.524L110.892 30.7492L109.97 32.524ZM106.262 28.42L104.365 29.0525L104.37 29.0678L104.375 29.083L106.262 28.42ZM106.262 14.38L108.159 15.0125L108.162 15.005L106.262 14.38ZM109.862 10.024L110.891 11.739V11.739L109.862 10.024ZM125.702 10.024L124.693 11.7507L125.702 10.024ZM129.41 14.38L127.518 15.0274L127.52 15.0351L129.41 14.38ZM129.446 28.384L127.549 27.7515V27.7515L129.446 28.384ZM125.918 32.524L124.957 30.77L125.918 32.524ZM122.03 26.476V28.476H124.03V26.476H122.03ZM122.03 17.404H124.03V15.404H122.03V17.404ZM113.57 17.404V15.404H111.57V17.404H113.57ZM113.57 26.476H111.57V28.476H113.57V26.476ZM118.214 31.964C114.679 31.964 112.315 31.4885 110.892 30.7492L109.048 34.2988C111.321 35.4795 114.453 35.964 118.214 35.964V31.964ZM110.892 30.7492C109.443 29.9966 108.586 29.0005 108.149 27.757L104.375 29.083C105.186 31.3915 106.801 33.1314 109.048 34.2988L110.892 30.7492ZM108.159 27.7875C107.656 26.2769 107.362 24.0948 107.362 21.148H103.362C103.362 24.2972 103.668 26.9631 104.365 29.0525L108.159 27.7875ZM107.362 21.148C107.362 18.5667 107.65 16.5415 108.159 15.0125L104.365 13.7475C103.674 15.8185 103.362 18.3053 103.362 21.148H107.362ZM108.162 15.005C108.597 13.6808 109.461 12.5968 110.891 11.739L108.833 8.30901C106.662 9.61124 105.126 11.4312 104.362 13.755L108.162 15.005ZM110.891 11.739C112.243 10.9279 114.425 10.404 117.674 10.404V6.404C114.107 6.404 111.081 6.9601 108.833 8.30901L110.891 11.739ZM117.674 10.404C121.025 10.404 123.288 10.9297 124.693 11.7507L126.711 8.29726C124.42 6.95829 121.33 6.404 117.674 6.404V10.404ZM124.693 11.7507C126.175 12.6172 127.066 13.7085 127.518 15.0274L131.302 13.7326C130.505 11.4035 128.924 9.59078 126.711 8.29726L124.693 11.7507ZM127.52 15.0351C128.047 16.5558 128.346 18.5725 128.346 21.148H132.346C132.346 18.2995 132.02 15.8042 131.3 13.7249L127.52 15.0351ZM128.346 21.148C128.346 24.0688 128.052 26.2397 127.549 27.7515L131.343 29.0165C132.039 26.9283 132.346 24.2752 132.346 21.148H128.346ZM127.549 27.7515C127.117 29.0459 126.292 30.0383 124.957 30.77L126.879 34.278C129.048 33.0897 130.575 31.3221 131.343 29.0165L127.549 27.7515ZM124.957 30.77C123.638 31.4928 121.466 31.964 118.214 31.964V35.964C121.729 35.964 124.694 35.4752 126.879 34.278L124.957 30.77ZM124.03 26.476V17.404H120.03V26.476H124.03ZM122.03 15.404H113.57V19.404H122.03V15.404ZM111.57 17.404V26.476H115.57V17.404H111.57ZM113.57 28.476H122.03V24.476H113.57V28.476ZM144.715 33.136L143.515 34.736L143.547 34.7599L143.579 34.7824L144.715 33.136ZM144.499 28.996L143.054 27.6136L144.499 28.996ZM146.947 27.088L148.039 28.7632L148.041 28.7625L146.947 27.088ZM149.395 25.252L148.021 23.7984L148.001 23.8178L147.981 23.8378L149.395 25.252ZM152.635 15.424L154.628 15.2579L154.475 13.424H152.635V15.424ZM146.659 15.424V13.424H145.001L144.694 15.0535L146.659 15.424ZM143.995 21.868L142.504 20.5344L142.498 20.5417L142.491 20.5491L143.995 21.868ZM137.731 23.092L136.377 24.5639L136.391 24.5771L136.406 24.59L137.731 23.092ZM137.227 18.808L139.058 19.6135L139.063 19.6004L139.069 19.5873L137.227 18.808ZM138.415 16.54L140.134 17.5622L140.143 17.5473L140.151 17.5323L138.415 16.54ZM139.315 14.956L137.526 14.0616V14.0616L139.315 14.956ZM140.071 12.868L141.987 13.4427L141.995 13.4131L142.003 13.3833L140.071 12.868ZM140.683 11.068L138.859 10.2473V10.2473L140.683 11.068ZM141.547 9.808L140.186 8.34241L140.159 8.3676L140.133 8.39379L141.547 9.808ZM143.959 8.548L143.509 6.59922L143.959 8.548ZM147.199 8.224L147.237 6.22436L147.218 6.224H147.199V8.224ZM149.107 8.26L149.069 10.2596L149.088 10.26H149.107V8.26ZM154.255 8.476L154.451 6.4856L154.255 8.476ZM157.567 9.556L156.343 11.1374L156.361 11.152L156.381 11.1661L157.567 9.556ZM159.583 12.328L157.706 13.0176V13.0176L159.583 12.328ZM158.323 24.928L160.131 25.7835L160.134 25.7773L158.323 24.928ZM153.391 31.408L152.133 29.8535L153.391 31.408ZM157.495 8.26L155.691 9.12291L155.714 9.17095L155.739 9.2177L157.495 8.26ZM157.495 3.688L155.758 2.69572L155.75 2.70987L155.743 2.72416L157.495 3.688ZM160.375 8.26L158.634 7.27588L158.626 7.28903L158.619 7.3023L160.375 8.26ZM161.995 8.26L160.161 9.05745L160.182 9.10654L160.206 9.15442L161.995 8.26ZM147.235 31.856C146.588 31.856 146.16 31.7033 145.85 31.4896L143.579 34.7824C144.661 35.5287 145.914 35.856 147.235 35.856V31.856ZM145.915 31.536C145.779 31.4342 145.707 31.3485 145.707 31.048H141.707C141.707 32.5235 142.307 33.8298 143.515 34.736L145.915 31.536ZM145.707 31.048C145.707 30.7084 145.798 30.5312 145.944 30.3784L143.054 27.6136C142.144 28.5648 141.707 29.7556 141.707 31.048H145.707ZM145.944 30.3784C146.317 29.9889 146.986 29.4505 148.039 28.7632L145.854 25.4128C144.7 26.1655 143.737 26.8991 143.054 27.6136L145.944 30.3784ZM148.041 28.7625C149.23 27.9859 150.196 27.2792 150.809 26.6662L147.981 23.8378C147.682 24.1368 147.016 24.6541 145.853 25.4135L148.041 28.7625ZM150.769 26.7056C153.428 24.1925 154.671 20.8049 154.671 16.792H150.671C150.671 19.9311 149.73 22.1835 148.021 23.7984L150.769 26.7056ZM154.671 16.792C154.671 16.1608 154.659 15.6343 154.628 15.2579L150.642 15.5901C150.658 15.7897 150.671 16.1752 150.671 16.792H154.671ZM152.635 13.424H146.659V17.424H152.635V13.424ZM144.694 15.0535C144.171 17.8242 143.378 19.5583 142.504 20.5344L145.485 23.2016C147.06 21.4417 148.043 18.8798 148.624 15.7945L144.694 15.0535ZM142.491 20.5491C141.539 21.6352 140.761 21.92 140.143 21.92V25.92C142.261 25.92 144.051 24.8368 145.498 23.1869L142.491 20.5491ZM140.143 21.92C139.554 21.92 139.25 21.7656 139.056 21.594L136.406 24.59C137.46 25.5224 138.764 25.92 140.143 25.92V21.92ZM139.085 21.6201C138.991 21.5334 138.831 21.3427 138.831 20.752H134.831C134.831 22.1773 135.271 23.5466 136.377 24.5639L139.085 21.6201ZM138.831 20.752C138.831 20.3159 138.912 19.9442 139.058 19.6135L135.396 18.0025C135.014 18.8718 134.831 19.7961 134.831 20.752H138.831ZM139.069 19.5873C139.284 19.0782 139.631 18.408 140.134 17.5622L136.696 15.5178C136.143 16.448 135.698 17.2898 135.385 18.0287L139.069 19.5873ZM140.151 17.5323C140.697 16.5774 141.047 15.9644 141.104 15.8504L137.526 14.0616C137.548 14.0177 137.558 14.0023 137.502 14.1015C137.464 14.1697 137.408 14.2688 137.333 14.4C137.184 14.6618 136.966 15.0441 136.678 15.5477L140.151 17.5323ZM141.104 15.8504C141.401 15.2561 141.693 14.4219 141.987 13.4427L138.155 12.2933C137.873 13.2341 137.661 13.7919 137.526 14.0616L141.104 15.8504ZM142.003 13.3833C142.178 12.7286 142.349 12.2388 142.507 11.8887L138.859 10.2473C138.585 10.8572 138.348 11.5674 138.138 12.3527L142.003 13.3833ZM142.507 11.8887C142.627 11.6221 142.778 11.405 142.961 11.2222L140.133 8.39379C139.596 8.93096 139.171 9.55387 138.859 10.2473L142.507 11.8887ZM142.908 11.2736C143.311 10.899 143.797 10.638 144.409 10.4968L143.509 6.59922C142.249 6.88996 141.127 7.46896 140.186 8.34241L142.908 11.2736ZM144.409 10.4968C145.163 10.3226 146.087 10.224 147.199 10.224V6.224C145.863 6.224 144.626 6.34139 143.509 6.59922L144.409 10.4968ZM147.161 10.2236L149.069 10.2596L149.145 6.26035L147.237 6.22436L147.161 10.2236ZM149.107 10.26C151.03 10.26 152.678 10.3305 154.059 10.4664L154.451 6.4856C152.904 6.33349 151.12 6.26 149.107 6.26V10.26ZM154.059 10.4664C155.342 10.5926 156.02 10.8873 156.343 11.1374L158.791 7.97455C157.626 7.07266 156.096 6.6474 154.451 6.4856L154.059 10.4664ZM156.381 11.1661C156.944 11.5813 157.394 12.169 157.706 13.0176L161.46 11.6384C160.908 10.135 160.014 8.87471 158.753 7.94589L156.381 11.1661ZM157.706 13.0176C158.042 13.9324 158.231 15.036 158.231 16.36H162.231C162.231 14.66 161.988 13.0756 161.46 11.6384L157.706 13.0176ZM158.231 16.36C158.231 19.0669 157.659 21.6329 156.512 24.0787L160.134 25.7773C161.531 22.7991 162.231 19.6531 162.231 16.36H158.231ZM156.515 24.0725C155.353 26.529 153.883 28.4362 152.133 29.8535L154.649 32.9625C156.931 31.1158 158.749 28.703 160.131 25.7835L156.515 24.0725ZM152.133 29.8535C150.384 31.269 148.763 31.856 147.235 31.856V35.856C149.883 35.856 152.366 34.811 154.649 32.9625L152.133 29.8535ZM158.935 7.052C158.86 7.052 158.92 7.03824 159.035 7.10157C159.09 7.13214 159.141 7.17136 159.183 7.21421C159.223 7.25607 159.244 7.28985 159.251 7.3023L155.739 9.2177C156.425 10.4753 157.636 11.052 158.935 11.052V7.052ZM159.299 7.39709C159.228 7.24766 159.099 6.7883 159.099 5.812H155.099C155.099 6.9957 155.234 8.16834 155.691 9.12291L159.299 7.39709ZM159.099 5.812C159.099 5.43262 159.126 5.14904 159.164 4.94556C159.183 4.84559 159.202 4.77299 159.219 4.72321C159.227 4.69866 159.234 4.68088 159.239 4.669C159.244 4.65714 159.247 4.65178 159.247 4.65184L155.743 2.72416C155.239 3.64006 155.099 4.74771 155.099 5.812H159.099ZM159.231 4.68027C159.22 4.70098 159.194 4.73914 159.15 4.78255C159.105 4.82669 159.053 4.86407 159.001 4.89179C158.893 4.9482 158.847 4.932 158.935 4.932V0.931999C157.681 0.931999 156.465 1.4593 155.758 2.69572L159.231 4.68027ZM158.935 4.932C158.996 4.932 158.953 4.94265 158.862 4.89633C158.763 4.8462 158.708 4.77937 158.692 4.75605C158.686 4.74619 158.728 4.80748 158.77 4.99844C158.811 5.18825 158.843 5.4648 158.843 5.848H162.843C162.843 4.7216 162.67 3.52989 162.04 2.56594C161.312 1.45447 160.17 0.931999 158.935 0.931999V4.932ZM158.843 5.848C158.843 6.76235 158.698 7.16181 158.634 7.27588L162.116 9.24411C162.676 8.25419 162.843 7.04565 162.843 5.848H158.843ZM158.619 7.3023C158.626 7.28985 158.647 7.25607 158.687 7.21421C158.729 7.17136 158.78 7.13214 158.835 7.10157C158.95 7.03824 159.01 7.052 158.935 7.052V11.052C160.234 11.052 161.445 10.4752 162.131 9.2177L158.619 7.3023ZM163.399 7.052C163.322 7.052 163.394 7.03749 163.527 7.11204C163.591 7.14853 163.651 7.19593 163.7 7.24902C163.748 7.30093 163.773 7.34474 163.784 7.36557L160.206 9.15442C160.498 9.73828 160.946 10.2489 161.561 10.596C162.161 10.9345 162.804 11.052 163.399 11.052V7.052ZM163.829 7.46255C163.748 7.27654 163.635 6.8143 163.635 5.92H159.635C159.635 7.0417 159.762 8.13945 160.161 9.05745L163.829 7.46255ZM163.635 5.92C163.635 5.51833 163.666 5.22251 163.709 5.01406C163.73 4.91183 163.752 4.83928 163.77 4.79102C163.787 4.74292 163.799 4.72424 163.798 4.72605C163.79 4.73927 163.735 4.81483 163.621 4.87673C163.511 4.93637 163.441 4.932 163.471 4.932V0.931999C162.204 0.931999 161.08 1.50873 160.39 2.63195C159.798 3.59568 159.635 4.78418 159.635 5.92H163.635ZM163.471 4.932C163.558 4.932 163.537 4.94698 163.463 4.91159C163.378 4.87141 163.318 4.81099 163.291 4.77335C163.274 4.74845 163.308 4.78625 163.346 4.94651C163.383 5.10718 163.415 5.35248 163.415 5.704H167.415C167.415 4.60749 167.234 3.42827 166.566 2.47665C165.808 1.39555 164.659 0.931999 163.471 0.931999V4.932ZM163.415 5.704C163.415 6.16765 163.38 6.5187 163.328 6.77517C163.276 7.03442 163.217 7.15169 163.198 7.1833C163.186 7.20179 163.219 7.14465 163.312 7.09296C163.403 7.04289 163.453 7.052 163.399 7.052V11.052C164.745 11.052 165.913 10.4285 166.624 9.2467C167.238 8.22719 167.415 6.95547 167.415 5.704H163.415Z" fill="#090A0A" mask="url(#path-1-outside-1_2_5)"/>
</svg>
